<svg xmlns="http://www.w3.org/2000/svg" xmlns:xlink="http://www.w3.org/1999/xlink" xmlns:lucid="lucid" width="270" height="270" viewBox="0 0 540 540"><g transform="translate(-340 20)" lucid:page-tab-id="0_0"><path d="M860 250c0 138.07-111.93 250-250 250S360 388.07 360 250 471.93 0 610 0s250 111.93 250 250z" stroke="#7769e0" stroke-width="2" fill="#7769e0" fill-opacity=".4"/><path d="M820 200c0 55.23-44.77 100-100 100s-100-44.77-100-100 44.77-100 100-100 100 44.77 100 100z" stroke="#49c1a1" stroke-width="2" fill="#49c1a1" fill-opacity=".4"/><path d="M640 170h160v60H640z" stroke="#000" stroke-opacity="0" stroke-width="2" fill="#fff" fill-opacity="0"/><use xlink:href="#a" transform="matrix(1,0,0,1,645,174.99999999999997) translate(31.099999999999994 28.6)"/><use xlink:href="#b" transform="matrix(1,0,0,1,645,174.99999999999997) translate(72 28.6)"/><path d="M440 320h240v60H440z" stroke="#000" stroke-opacity="0" stroke-width="2" fill="#fff" fill-opacity="0"/><use xlink:href="#c" transform="matrix(1,0,0,1,445,325) translate(79.1 28.6)"/><use xlink:href="#d" transform="matrix(1,0,0,1,445,325) translate(104 28.6)"/><defs><path d="M190 0L58-211 59 0H30v-248h39L202-35l-2-213h31V0h-41" id="e"/><path d="M100-194c63 0 86 42 84 106H49c0 40 14 67 53 68 26 1 43-12 49-29l28 8c-11 28-37 45-77 45C44 4 14-33 15-96c1-61 26-98 85-98zm52 81c6-60-76-77-97-28-3 7-6 17-6 28h103" id="f"/><path d="M206 0h-36l-40-164L89 0H53L-1-190h32L70-26l43-164h34l41 164 42-164h31" id="g"/><g id="a"><use transform="matrix(0.05,0,0,0.05,0,0)" xlink:href="#e"/><use transform="matrix(0.05,0,0,0.05,12.950000000000001,0)" xlink:href="#f"/><use transform="matrix(0.05,0,0,0.05,22.950000000000003,0)" xlink:href="#g"/></g><path d="M232-93c-1 65-40 97-104 97C67 4 28-28 28-90v-158h33c8 89-33 224 67 224 102 0 64-133 71-224h33v155" id="h"/><path d="M135-143c-3-34-86-38-87 0 15 53 115 12 119 90S17 21 10-45l28-5c4 36 97 45 98 0-10-56-113-15-118-90-4-57 82-63 122-42 12 7 21 19 24 35" id="i"/><path d="M114-163C36-179 61-72 57 0H25l-1-190h30c1 12-1 29 2 39 6-27 23-49 58-41v29" id="j"/><g id="b"><use transform="matrix(0.05,0,0,0.05,0,0)" xlink:href="#h"/><use transform="matrix(0.05,0,0,0.05,12.950000000000001,0)" xlink:href="#i"/><use transform="matrix(0.05,0,0,0.05,21.950000000000003,0)" xlink:href="#f"/><use transform="matrix(0.05,0,0,0.05,31.950000000000003,0)" xlink:href="#j"/><use transform="matrix(0.05,0,0,0.05,37.900000000000006,0)" xlink:href="#i"/></g><path d="M205 0l-28-72H64L36 0H1l101-248h38L239 0h-34zm-38-99l-47-123c-12 45-31 82-46 123h93" id="k"/><path d="M24 0v-261h32V0H24" id="l"/><g id="c"><use transform="matrix(0.05,0,0,0.05,0,0)" xlink:href="#k"/><use transform="matrix(0.05,0,0,0.05,12,0)" xlink:href="#l"/><use transform="matrix(0.05,0,0,0.05,15.949999999999998,0)" xlink:href="#l"/></g><g id="d"><use transform="matrix(0.05,0,0,0.05,0,0)" xlink:href="#h"/><use transform="matrix(0.05,0,0,0.05,12.950000000000001,0)" xlink:href="#i"/><use transform="matrix(0.05,0,0,0.05,21.950000000000003,0)" xlink:href="#f"/><use transform="matrix(0.05,0,0,0.05,31.950000000000003,0)" xlink:href="#j"/><use transform="matrix(0.05,0,0,0.05,37.900000000000006,0)" xlink:href="#i"/></g></defs></g></svg>
